<?xml version="1.0" encoding="UTF-8" standalone="no"?>
<svg
        fill="#000000"
        viewBox="0 0 50 50"
        width="50px"
        height="50px"
        version="1.1"
        id="svg4"
        sodipodi:docname="typescript.svg"
        inkscape:version="1.1 (c68e22c387, 2021-05-23)"
        xmlns:inkscape="http://www.inkscape.org/namespaces/inkscape"
        xmlns:sodipodi="http://sodipodi.sourceforge.net/DTD/sodipodi-0.dtd"
        xmlns="http://www.w3.org/2000/svg"
        xmlns:svg="http://www.w3.org/2000/svg">
    <defs
            id="defs8" />
    <sodipodi:namedview
            id="namedview6"
            pagecolor="#ffffff"
            bordercolor="#666666"
            borderopacity="1.0"
            inkscape:pageshadow="2"
            inkscape:pageopacity="0.0"
            inkscape:pagecheckerboard="true"
            showgrid="false"
            inkscape:zoom="8.12"
            inkscape:cx="78.448276"
            inkscape:cy="34.174877"
            inkscape:window-width="1920"
            inkscape:window-height="1001"
            inkscape:window-x="-9"
            inkscape:window-y="-9"
            inkscape:window-maximized="1"
            inkscape:current-layer="svg4" />
    <path
            d="M45,4H5C4.447,4,4,4.448,4,5v40c0,0.552,0.447,1,1,1h40c0.553,0,1-0.448,1-1V5C46,4.448,45.553,4,45,4z M29,26.445h-5V42h-4 V26.445h-5V23h14V26.445z M30.121,41.112v-4.158c0,0,2.271,1.712,4.996,1.712c2.725,0,2.62-1.782,2.62-2.026 c0-2.586-7.721-2.586-7.721-8.315c0-7.791,11.25-4.717,11.25-4.717l-0.14,3.704c0,0-1.887-1.258-4.018-1.258s-2.9,1.013-2.9,2.096 c0,2.795,7.791,2.516,7.791,8.141C42,44.955,30.121,41.112,30.121,41.112z"
            id="path2"
            style="fill:#2f74c0;fill-opacity:1" />
    <path
            style="fill:#999999;fill-opacity:0;stroke:#ffffff;stroke-width:0.0930918;stroke-linecap:round;stroke-linejoin:round"
            d="m 20.012315,34.205665 v -7.789409 h -2.493842 -2.493842 v -1.69335 -1.693349 h 6.958128 6.958128 v 1.693349 1.69335 h -2.493843 -2.493842 v 7.789409 7.789409 h -1.970443 -1.970444 z"
            id="path47" />
    <path
            style="fill:#ffffff;fill-opacity:0;stroke:#ffffff;stroke-width:0.0930918;stroke-linecap:round;stroke-linejoin:round"
            d="m 19.997158,34.221059 -0.01563,-7.774015 -2.478448,-0.01609 -2.478448,-0.01609 v -1.692651 -1.692651 h 6.988916 6.988916 v 1.692659 1.692659 l -2.509236,0.01609 -2.509237,0.01608 -0.01563,7.774015 -0.01563,7.774015 h -1.969969 -1.96997 z"
            id="path86" />
    <path
            style="fill:#ffffff;fill-opacity:0;stroke:#ffffff;stroke-width:0.0930918;stroke-linecap:round;stroke-linejoin:round"
            d="m 19.991503,40.563424 c -0.02226,-0.787408 -0.04055,-4.278787 -0.04062,-7.758621 l -1.42e-4,-6.32697 -2.324507,-0.0061 c -1.27848,-0.0033 -2.393781,-0.01027 -2.478449,-0.01539 l -0.153941,-0.0093 v -1.724138 -1.724138 h 6.988917 6.988916 v 1.724138 1.724138 l -2.478448,0.01609 -2.478449,0.01609 v 7.757921 7.757923 h -1.991396 -1.991397 z"
            id="path977" />
    <path
            style="fill:#ffffff;fill-opacity:1;stroke:#ffffff;stroke-width:0.0930918;stroke-linecap:round;stroke-linejoin:round"
            d="m 19.991503,40.563424 c -0.02226,-0.787408 -0.04055,-4.278787 -0.04062,-7.758621 l -1.42e-4,-6.32697 -2.324507,-0.0061 c -1.27848,-0.0033 -2.393781,-0.01027 -2.478449,-0.01539 l -0.153941,-0.0093 v -1.724138 -1.724138 h 6.988917 6.988916 v 1.724138 1.724138 l -2.478448,0.01609 -2.478449,0.01609 v 7.757921 7.757923 h -1.991396 -1.991397 z"
            id="path1016" />
    <path
            style="fill:#ffffff;fill-opacity:1;stroke:#ffffff;stroke-width:0.0930918;stroke-linecap:round;stroke-linejoin:round"
            d="m 19.979406,41.97968 c -0.01597,-0.04233 -0.03589,-3.540641 -0.04425,-7.774015 l -0.01521,-7.697044 -2.478449,-0.01609 -2.478448,-0.01609 V 24.722208 22.96798 h 7.019705 7.019704 v 1.754926 1.754927 h -2.396441 c -1.318044,0 -2.440273,0.01682 -2.493843,0.03738 -0.0881,0.03381 -0.0974,0.777372 -0.0974,7.789409 v 7.752032 h -2.003163 c -1.545991,0 -2.009793,-0.01757 -2.032209,-0.07697 z"
            id="path1203" />
    <path
            style="fill:#ffffff;fill-opacity:1;stroke:#ffffff;stroke-width:0.0930918;stroke-linecap:round;stroke-linejoin:round"
            d="m 34.131036,41.866002 c -0.860497,-0.0767 -2.04068,-0.28088 -3.050371,-0.527742 l -0.908251,-0.222062 v -2.023616 c 0,-1.112989 0.01332,-2.023616 0.02959,-2.023616 0.01628,0 0.175605,0.09329 0.354064,0.207312 0.778535,0.497423 1.774084,0.920075 2.788623,1.183888 0.735485,0.191248 2.120478,0.270779 2.681476,0.153976 0.813913,-0.169459 1.42078,-0.626976 1.62443,-1.224655 0.137519,-0.403597 0.124655,-1.007599 -0.02782,-1.306484 -0.313556,-0.614619 -0.710176,-0.894172 -2.817362,-1.985787 -2.061562,-1.06798 -2.789176,-1.571467 -3.555313,-2.460169 -1.015299,-1.177724 -1.405293,-2.739132 -1.108808,-4.439301 0.188249,-1.079498 0.546944,-1.789242 1.265829,-2.504679 0.564227,-0.561519 1.151435,-0.906609 2.02884,-1.192305 1.060997,-0.345477 1.745489,-0.436343 3.263546,-0.433233 1.429706,0.0029 2.256082,0.08803 3.703478,0.3814 0.790873,0.1603 0.822379,0.172565 0.822243,0.320086 -4.93e-4,0.53442 -0.111767,3.447734 -0.131686,3.447734 -0.01339,0 -0.302593,-0.139629 -0.642667,-0.310286 -1.2777,-0.64118 -2.341465,-0.890754 -3.597427,-0.844007 -0.88177,0.03282 -1.394781,0.172816 -1.88943,0.515608 -0.569976,0.394994 -0.908903,1.27163 -0.738281,1.909567 0.10419,0.389554 0.400129,0.78098 0.841142,1.112542 0.203672,0.153125 1.140412,0.661097 2.081645,1.128826 0.941233,0.467729 1.981708,1.030412 2.312168,1.250409 1.279423,0.851747 2.034663,1.827213 2.360407,3.0487 0.09848,0.369279 0.125165,0.656352 0.123886,1.332729 -0.0024,1.248322 -0.229928,2.236119 -0.699862,3.037845 -0.265356,0.452707 -1.152419,1.337651 -1.609896,1.606051 -1.286111,0.754554 -3.251367,1.062068 -5.504191,0.861269 z"
            id="path1242" />
</svg>
